<svg xmlns="http://www.w3.org/2000/svg" version="1.1" width="91px" height="68px" style="shape-rendering:geometricPrecision; text-rendering:geometricPrecision; image-rendering:optimizeQuality; fill-rule:evenodd; clip-rule:evenodd" xmlns:xlink="http://www.w3.org/1999/xlink">
<g><path style="opacity:0.832" fill="#ec1c37" d="M 1.5,-0.5 C 30.5,-0.5 59.5,-0.5 88.5,-0.5C 88.8333,0.5 89.5,1.16667 90.5,1.5C 90.5,18.8333 90.5,36.1667 90.5,53.5C 89.7109,53.7828 89.0442,54.2828 88.5,55C 59.5,55.6667 30.5,55.6667 1.5,55C 0.955796,54.2828 0.28913,53.7828 -0.5,53.5C -0.5,36.1667 -0.5,18.8333 -0.5,1.5C 0.5,1.16667 1.16667,0.5 1.5,-0.5 Z M 36.5,40.5 C 35.2106,43.7896 32.8772,46.1229 29.5,47.5C 36.094,48.7973 41.594,46.7973 46,41.5C 46.4983,44.8168 46.665,48.1501 46.5,51.5C 32.1667,51.5 17.8333,51.5 3.5,51.5C 3.5,35.5 3.5,19.5 3.5,3.5C 14.8333,3.5 26.1667,3.5 37.5,3.5C 37.8226,7.22605 37.4892,10.8927 36.5,14.5C 27.7612,7.65213 19.2612,7.98546 11,15.5C 3.76649,27.9978 6.59983,37.4978 19.5,44C 25.7039,45.1855 31.3706,44.0189 36.5,40.5 Z M 54.5,12.5 C 55.9142,10.9458 57.5808,9.61248 59.5,8.5C 52.9306,7.19742 47.4306,9.19742 43,14.5C 42.5014,10.8484 42.3347,7.18174 42.5,3.5C 57.1667,3.5 71.8333,3.5 86.5,3.5C 86.5,19.5 86.5,35.5 86.5,51.5C 75.1667,51.5 63.8333,51.5 52.5,51.5C 52.3345,47.4862 52.5012,43.4862 53,39.5C 62.8994,46.8445 71.8994,45.8445 80,36.5C 85.6438,21.7845 80.8105,12.7845 65.5,9.5C 61.648,9.89625 57.9814,10.8962 54.5,12.5 Z M 20.5,14.5 C 33.4829,13.9736 38.6496,19.9736 36,32.5C 31.4498,39.4348 25.2831,41.2682 17.5,38C 8.96014,28.8798 9.96014,21.0464 20.5,14.5 Z M 61.5,14.5 C 73.8159,13.6492 78.9826,19.3159 77,31.5C 72.9766,39.3766 66.8099,41.5433 58.5,38C 52.5927,33.3385 51.0927,27.5052 54,20.5C 56.1337,17.8474 58.6337,15.8474 61.5,14.5 Z"/></g>
<g><path style="opacity:0.413" fill="#ec1c37" d="M 28.5,61.5 C 27.6618,61.8417 27.3284,62.5084 27.5,63.5C 26.7321,64.2625 26.2321,65.2625 26,66.5C 25.2588,65.3595 24.4255,65.3595 23.5,66.5C 21.6082,64.2847 19.9415,64.618 18.5,67.5C 17.8333,67.5 17.1667,67.5 16.5,67.5C 16.0133,66.5266 15.5133,65.5266 15,64.5C 13.5557,66.1554 11.7224,66.822 9.5,66.5C 9.46219,59.9586 8.79553,59.9586 7.5,66.5C 5.32898,66.2735 3.16232,65.9402 1,65.5C 0.333333,63.8333 0.333333,62.1667 1,60.5C 1.5613,59.9781 2.22797,59.6448 3,59.5C 6.13098,59.5782 9.29765,59.9116 12.5,60.5C 11.5721,61.7678 11.4054,63.1011 12,64.5C 13.5596,58.8036 15.2263,58.4703 17,63.5C 17.2189,62.062 17.7189,60.7287 18.5,59.5C 19.1924,60.0253 19.6924,60.6919 20,61.5C 21,58.8333 22,58.8333 23,61.5C 23.6914,59.1088 24.6914,59.1088 26,61.5C 27.0712,58.8875 27.9045,58.8875 28.5,61.5 Z"/></g>
<g><path style="opacity:0.428" fill="#ec1c37" d="M 27.5,63.5 C 28.3382,63.1583 28.6716,62.4916 28.5,61.5C 29.1515,60.9094 29.8182,60.2427 30.5,59.5C 31.4981,61.4899 32.4981,63.4899 33.5,65.5C 32.132,66.5937 30.9653,66.2603 30,64.5C 28.4842,67.0515 27.6509,66.7181 27.5,63.5 Z"/></g>
<g><path style="opacity:0.414" fill="#ec1c37" d="M 34.5,59.5 C 36.0744,59.9371 37.2411,60.9371 38,62.5C 38.4828,61.552 38.6495,60.552 38.5,59.5C 42.5138,59.3345 46.5138,59.5012 50.5,60C 51.1905,61.0674 51.6905,62.2341 52,63.5C 53.3333,58.1667 54.6667,58.1667 56,63.5C 56.49,62.2068 56.6567,60.8734 56.5,59.5C 63.4807,59.5128 70.1474,59.5128 76.5,59.5C 77.2508,60.376 77.7508,61.376 78,62.5C 79.2512,59.1837 80.9179,58.8504 83,61.5C 83.5354,59.7295 84.3687,59.3961 85.5,60.5C 87.1561,62.4122 87.4895,64.4122 86.5,66.5C 85.8076,65.9747 85.3076,65.3081 85,64.5C 82,67.1667 79,67.1667 76,64.5C 75.3109,65.3567 74.4776,66.0233 73.5,66.5C 72.2888,65.6102 70.9555,65.6102 69.5,66.5C 68.3527,66.1822 67.5194,65.5156 67,64.5C 65.2458,66.25 63.0792,66.9167 60.5,66.5C 60.6495,65.448 60.4828,64.448 60,63.5C 58.4016,66.9248 56.4016,67.2581 54,64.5C 53.3109,65.3567 52.4776,66.0233 51.5,66.5C 50.5,65.1667 49.5,65.1667 48.5,66.5C 47.7022,64.9223 47.2022,63.2556 47,61.5C 46.1146,68.0784 44.948,68.0784 43.5,61.5C 43.1667,61.6667 42.8333,61.8333 42.5,62C 43.3802,63.3561 43.7135,64.8561 43.5,66.5C 40.5,65.1667 37.5,65.1667 34.5,66.5C 34.5,64.1667 34.5,61.8333 34.5,59.5 Z M 73.5,61.5 C 74.7733,62.0768 74.7733,62.7435 73.5,63.5C 72.537,63.0302 72.537,62.3635 73.5,61.5 Z"/></g>
</svg>